<svg width="18" height="13" viewBox="0 0 18 13" fill="none" xmlns="http://www.w3.org/2000/svg">
<path d="M5.37201 0.469673C5.6649 0.17678 6.13978 0.17678 6.43267 0.469673L11.2056 5.24264C11.4985 5.53554 11.4985 6.01041 11.2056 6.3033C10.9128 6.5962 10.4379 6.5962 10.145 6.3033L5.90234 2.06066L1.6597 6.3033C1.36681 6.5962 0.891935 6.5962 0.599042 6.3033C0.306149 6.01041 0.306148 5.53554 0.599042 5.24264L5.37201 0.469673ZM5.15234 13L5.15234 1L6.65234 1L6.65234 13L5.15234 13Z" fill="white"/>
<line y1="-0.75" x2="12" y2="-0.75" transform="matrix(-1 -1.19249e-08 -1.19249e-08 1 17.9023 13)" stroke="white" stroke-width="1.5"/>
</svg>
